<svg width="18" height="18" viewBox="0 0 18 18" fill="none" xmlns="http://www.w3.org/2000/svg">
<g clip-path="url(#clip0)">
<path d="M17.6473 3.3047L4.83453 3.3047C4.6398 3.3047 4.48187 3.46263 4.48187 3.65736L4.48187 6.48689C4.01811 6.19012 3.47882 6.03082 2.91481 6.03082C2.13588 6.03082 1.40364 6.33418 0.852814 6.88501C-0.284271 8.02209 -0.284271 9.87219 0.852814 11.0091L4.36555 14.5219C4.48805 14.6444 4.64873 14.7055 4.80968 14.7055C4.97049 14.7055 5.1313 14.6444 5.2538 14.5219L7.62561 12.1501H11.4509L15.9498 14.6495C16.0035 14.6794 16.0624 14.694 16.1211 14.694C16.205 14.694 16.2882 14.664 16.3541 14.6059C16.4662 14.5073 16.5039 14.3488 16.4485 14.2103L15.6243 12.1501H17.6473C17.8421 12.1501 18 11.9921 18 11.7974V3.65736C18 3.46263 17.8422 3.3047 17.6473 3.3047ZM4.80968 13.9687L1.35159 10.5105C0.489441 9.64848 0.489441 8.2458 1.35159 7.38379C1.76907 6.96617 2.3243 6.73615 2.91495 6.73615C3.50546 6.73615 4.06068 6.96617 4.4783 7.38379L4.56029 7.46577C4.63239 7.53787 4.72783 7.57179 4.82231 7.56836C4.82643 7.5685 4.83041 7.56905 4.83453 7.56905C4.97145 7.56905 5.08997 7.49077 5.14833 7.37679C5.56512 6.9637 6.11719 6.73615 6.70441 6.73615C7.29492 6.73615 7.85028 6.96617 8.26776 7.38379C8.68538 7.80127 8.91541 8.35649 8.91541 8.94714C8.91541 9.53766 8.68538 10.0929 8.26776 10.5105L4.80968 13.9687ZM17.2948 11.4449H15.1035C14.9865 11.4449 14.877 11.5028 14.8114 11.5998C14.7458 11.6967 14.7325 11.8198 14.7761 11.9284L15.4252 13.5514L11.7135 11.4892C11.6612 11.4601 11.6021 11.4449 11.5422 11.4449H8.33093L8.76654 11.0091C9.31737 10.4585 9.62073 9.72607 9.62073 8.94714C9.62073 8.16821 9.31737 7.43584 8.76654 6.88501C8.21571 6.33418 7.48334 6.03082 6.70441 6.03082C6.16058 6.03082 5.63969 6.17928 5.18719 6.45599L5.18719 4.01003L17.2948 4.01003V11.4449Z" fill="black"/>
<path d="M14.6651 7.44749L10.4137 7.44749C10.219 7.44749 10.061 7.60542 10.061 7.80016C10.061 7.99489 10.219 8.15282 10.4137 8.15282H14.6651C14.8599 8.15282 15.0178 7.99489 15.0178 7.80016C15.0178 7.60542 14.8599 7.44749 14.6651 7.44749Z" fill="black"/>
<path d="M10.3429 6.50967L13.2166 6.50967C13.4114 6.50967 13.5693 6.35175 13.5693 6.15701C13.5693 5.96228 13.4114 5.80435 13.2166 5.80435L10.3429 5.80435C10.1482 5.80435 9.99023 5.96228 9.99023 6.15701C9.99023 6.35175 10.1482 6.50967 10.3429 6.50967Z" fill="black"/>
<path d="M14.6628 9.2281L10.4137 9.2281C10.219 9.2281 10.061 9.38589 10.061 9.58063C10.061 9.77536 10.219 9.93329 10.4137 9.93329H14.6628C14.8575 9.93329 15.0153 9.77536 15.0153 9.58063C15.0153 9.38589 14.8575 9.2281 14.6628 9.2281Z" fill="black"/>
<path d="M2.61843 9.98135C2.48014 9.8443 2.25684 9.84526 2.11965 9.98369C1.9826 10.1221 1.9837 10.3454 2.12212 10.4825L3.3629 11.7117C3.4317 11.7798 3.52137 11.8137 3.61105 11.8137C3.70182 11.8137 3.79274 11.779 3.86168 11.7092C3.99873 11.5709 3.99763 11.3476 3.8592 11.2106L2.61843 9.98135Z" fill="black"/>
<path d="M4.87617 12.1929C4.80339 12.0123 4.59794 11.925 4.41721 11.9976C4.23662 12.0704 4.14914 12.276 4.22193 12.4566L4.22674 12.4682C4.28208 12.6057 4.41433 12.6892 4.55386 12.6892C4.5978 12.6892 4.64244 12.681 4.68556 12.6635C4.86628 12.5907 4.95363 12.3853 4.88084 12.2047L4.87617 12.1929Z" fill="black"/>
<path d="M14.3408 6.29558C14.3964 6.43249 14.5284 6.51558 14.6676 6.51558C14.7118 6.51558 14.7567 6.50734 14.8001 6.48962C14.9806 6.41643 15.0675 6.21071 14.9943 6.03026L14.9895 6.01858C14.9163 5.83813 14.7106 5.7512 14.5301 5.8244C14.3497 5.89773 14.2628 6.10332 14.3361 6.28377L14.3408 6.29558Z" fill="black"/>
</g>
<defs>
<clipPath id="clip0">
<rect width="18" height="18" fill="white"/>
</clipPath>
</defs>
</svg>
