<svg width="16" height="16" viewBox="0 0 16 16" fill="none" xmlns="http://www.w3.org/2000/svg">
<g clip-path="url(#clip0)">
<path d="M13.6667 7.88C13.4827 7.88 13.3333 7.73067 13.3333 7.54667V1.66667C13.3333 1.11533 12.8847 0.666667 12.3333 0.666667H3.66667C3.11533 0.666667 2.66667 1.11533 2.66667 1.66667V7.54667C2.66667 7.73067 2.51733 7.88 2.33333 7.88C2.14933 7.88 2 7.73133 2 7.54667V1.66667C2 0.747333 2.74733 0 3.66667 0H12.3333C13.2527 0 14 0.747333 14 1.66667V7.54667C14 7.73133 13.8507 7.88 13.6667 7.88Z" fill="black"/>
<path d="M7.99998 10.6627C7.73531 10.6627 7.47064 10.5993 7.22931 10.474L0.179309 6.79533C0.0159755 6.71 -0.0473579 6.50867 0.0379755 6.34533C0.123309 6.182 0.325309 6.12067 0.487975 6.204L7.53798 9.88267C7.82731 10.034 8.17331 10.034 8.46264 9.88267L15.5126 6.204C15.6753 6.12067 15.878 6.18133 15.9626 6.34533C16.048 6.50867 15.9846 6.71 15.8213 6.79533L8.77131 10.474C8.52931 10.5993 8.26398 10.6627 7.99998 10.6627Z" fill="black"/>
<path d="M14.6667 15.3333H1.33333C0.598 15.3333 0 14.7353 0 14V5.60667C0 5.10801 0.275333 4.65468 0.719333 4.42467L2.17933 3.66468C2.34133 3.58134 2.544 3.64201 2.62867 3.80667C2.714 3.97001 2.65067 4.17134 2.48667 4.25601L1.02667 5.01601C0.804667 5.13134 0.666667 5.35734 0.666667 5.60667V14C0.666667 14.368 0.965333 14.6667 1.33333 14.6667H14.6667C15.0347 14.6667 15.3333 14.368 15.3333 14V5.60667C15.3333 5.35734 15.1953 5.13134 14.9733 5.01534L13.5133 4.25534C13.35 4.17067 13.286 3.96934 13.3713 3.80601C13.4567 3.64201 13.66 3.58134 13.8207 3.66401L15.2807 4.42401C15.7247 4.65468 16 5.10801 16 5.60667V14C16 14.7353 15.402 15.3333 14.6667 15.3333Z" fill="black"/>
<path d="M11.6667 7.38266C11.6367 7.38266 11.6067 7.37866 11.5767 7.37L4.24333 5.32066C4.09933 5.28066 4 5.15 4 5V3.66666C4 3.516 4.10067 3.38466 4.24533 3.34533L11.5787 1.34533C11.6807 1.31866 11.7867 1.33933 11.8693 1.402C11.952 1.46466 12 1.56266 12 1.66666V7.04933C12 7.15333 11.9513 7.252 11.8687 7.31466C11.8093 7.35933 11.7387 7.38266 11.6667 7.38266ZM4.66667 4.74666L11.3333 6.61V2.10266L4.66667 3.92133V4.74666Z" fill="black"/>
<path d="M11.6668 7.66667C11.4828 7.66667 11.3335 7.51733 11.3335 7.33333V1.33333C11.3335 1.14933 11.4828 1 11.6668 1C11.8508 1 12.0002 1.14933 12.0002 1.33333V7.33333C12.0002 7.51733 11.8508 7.66667 11.6668 7.66667Z" fill="black"/>
<path d="M4.33334 5.66666C4.14933 5.66666 4 5.51733 4 5.33333V3.33333C4 3.14933 4.14933 3 4.33334 3C4.51734 3 4.66667 3.14933 4.66667 3.33333V5.33333C4.66667 5.51733 4.51734 5.66666 4.33334 5.66666Z" fill="black"/>
<path d="M6.66683 7.7C5.93149 7.7 5.3335 7.102 5.3335 6.36666C5.3335 5.888 5.58816 5.44933 5.99816 5.22133C6.15816 5.13399 6.36216 5.19 6.45216 5.35066C6.54149 5.512 6.48349 5.71466 6.32283 5.80466C6.12083 5.91666 6.00016 6.126 6.00016 6.36666C6.00016 6.73466 6.29883 7.03333 6.66683 7.03333C7.03482 7.03333 7.33349 6.73466 7.33349 6.36666C7.33349 6.24933 7.30882 6.15266 7.25682 6.06999C7.15949 5.91399 7.20749 5.708 7.36349 5.61066C7.51816 5.51466 7.72482 5.56133 7.82282 5.71733C7.94016 5.90533 8.00016 6.12466 8.00016 6.36666C8.00016 7.10133 7.40216 7.7 6.66683 7.7Z" fill="black"/>
</g>
<defs>
<clipPath id="clip0">
<rect width="16" height="16" fill="white"/>
</clipPath>
</defs>
</svg>
