<svg width="15" height="15" viewBox="0 0 15 15" fill="none" xmlns="http://www.w3.org/2000/svg">
<g clip-path="url(#clip0)">
<path d="M13.1721 5.20886L11.7018 4.67369C12.2334 4.23442 12.4604 3.53765 12.2976 2.87554C11.9778 1.57467 10.3917 1.08084 9.38963 1.96669L8.37444 2.86411L8.17361 1.51821C7.97504 0.193146 6.44096 -0.444354 5.36175 0.345197C4.82214 0.739972 4.53508 1.42051 4.66238 2.11151L3.27611 1.60695C2.59408 1.35866 1.83708 1.71163 1.58879 2.39375L0.988493 4.04308C0.905612 4.2708 1.02303 4.52264 1.25079 4.60549C1.34316 4.63909 8.01081 7.06593 8.10872 7.10155C7.83122 7.10155 1.75414 7.10155 1.48677 7.10155C1.24443 7.10155 1.04797 7.29802 1.04797 7.54036V13.6836C1.04797 14.4094 1.6385 15 2.36436 15H5.87477H7.62998H11.1404C11.8662 15 12.4568 14.4094 12.4568 13.6836V8.68414L12.7962 8.80772C13.0229 8.89027 13.2754 8.77411 13.3587 8.54545L13.959 6.89612C14.2072 6.21401 13.8542 5.45712 13.1721 5.20886ZM5.43593 14.1224H2.36433C2.12237 14.1224 1.92552 13.9255 1.92552 13.6836V7.97917H5.43593V14.1224ZM7.19114 14.1224H6.31355V7.97917H7.19114V14.1224ZM9.97086 2.62423C10.4799 2.1742 11.2835 2.42665 11.4454 3.0851C11.618 3.78714 10.9395 4.39587 10.2603 4.14907C9.68263 3.93881 9.41193 3.84029 8.83346 3.62973L9.97086 2.62423ZM5.8799 1.05354C6.42834 0.652346 7.2052 0.977892 7.30572 1.64835L7.53072 3.15553C7.36877 3.09658 6.26328 2.69419 6.10399 2.63624C5.42477 2.38889 5.29648 1.48028 5.8799 1.05354ZM6.08662 5.43166L1.96326 3.93087L2.41349 2.6939C2.49626 2.46653 2.74859 2.34893 2.97593 2.43163C3.43736 2.59956 6.54462 3.73051 6.68691 3.78231L6.08662 5.43166ZM7.73597 6.03201L6.9113 5.73184L7.51162 4.08251L8.3363 4.38269L7.73597 6.03201ZM11.5791 13.6836C11.5791 13.9255 11.3823 14.1224 11.1403 14.1224H8.06876V7.97917H10.5199L11.5792 8.36472V13.6836H11.5791ZM13.1342 6.59592L12.684 7.83292L8.56065 6.33213L9.16097 4.6828L12.872 6.03348C13.0994 6.11624 13.217 6.36858 13.1342 6.59592Z" fill="#DC0000"/>
</g>
<defs>
<clipPath id="clip0">
<rect width="15" height="15" fill="white"/>
</clipPath>
</defs>
</svg>
