<svg width="16" height="16" viewBox="0 0 16 16" fill="none" xmlns="http://www.w3.org/2000/svg">
<path d="M1.31628 7.26384L7.31234 1.58462C7.69801 1.21932 8.30199 1.21932 8.68767 1.58462L14.6837 7.26384C15.3379 7.88346 14.8994 8.98415 13.9983 8.98415C13.7231 8.98415 13.5 9.20726 13.5 9.48249V14.6143C13.5 15.1666 13.0523 15.6143 12.5 15.6143H10V10.9313C10 10.379 9.55229 9.93131 9 9.93131H7C6.44772 9.93131 6 10.379 6 10.9313V15.6143H3.5C2.94772 15.6143 2.5 15.1665 2.5 14.6143V9.48249C2.5 9.20726 2.27689 8.98415 2.00166 8.98415C1.10061 8.98415 0.662091 7.88346 1.31628 7.26384Z" stroke="black" stroke-width="0.7" stroke-linecap="round" stroke-linejoin="round"/>
</svg>
