<svg width="19" height="14" viewBox="0 0 19 14" fill="none" xmlns="http://www.w3.org/2000/svg">
<path d="M18.325 11.825H17.0182C17.3324 11.5725 17.5859 11.2528 17.7602 10.8894C17.9344 10.5259 18.0249 10.128 18.025 9.725C18.025 9.64543 17.9934 9.56913 17.9371 9.51287C17.8809 9.45661 17.8046 9.425 17.725 9.425H17.4175C17.3476 7.67042 16.6887 5.99054 15.5471 4.65634C14.4055 3.32214 12.8477 2.41142 11.125 2.0711V1.625C11.125 1.22718 10.967 0.845644 10.6857 0.56434C10.4044 0.283035 10.0228 0.125 9.625 0.125C9.22718 0.125 8.84564 0.283035 8.56434 0.56434C8.28304 0.845644 8.125 1.22718 8.125 1.625V2.0711C6.40233 2.41142 4.84453 3.32214 3.70289 4.65634C2.56126 5.99054 1.90237 7.67042 1.8325 9.425H1.525C1.44544 9.425 1.36913 9.45661 1.31287 9.51287C1.25661 9.56913 1.225 9.64543 1.225 9.725C1.2251 10.128 1.3156 10.5259 1.48984 10.8894C1.66409 11.2528 1.91763 11.5725 2.2318 11.825H0.925C0.845435 11.825 0.769129 11.8566 0.712868 11.9129C0.656607 11.9691 0.625 12.0454 0.625 12.125V13.625C0.625 13.7046 0.656607 13.7809 0.712868 13.8371C0.769129 13.8934 0.845435 13.925 0.925 13.925H18.325C18.4046 13.925 18.4809 13.8934 18.5371 13.8371C18.5934 13.7809 18.625 13.7046 18.625 13.625V12.125C18.625 12.0454 18.5934 11.9691 18.5371 11.9129C18.4809 11.8566 18.4046 11.825 18.325 11.825ZM8.725 1.625C8.725 1.38631 8.81982 1.15739 8.9886 0.988604C9.15739 0.819821 9.38631 0.725 9.625 0.725C9.8637 0.725 10.0926 0.819821 10.2614 0.988604C10.4302 1.15739 10.525 1.38631 10.525 1.625V1.9784C9.92711 1.9072 9.32289 1.9072 8.725 1.9784V1.625ZM9.625 2.525C11.4818 2.52732 13.2661 3.2461 14.606 4.53153C15.9459 5.81696 16.7381 7.56989 16.8175 9.425H2.4325C2.51187 7.56989 3.30406 5.81696 4.64398 4.53153C5.98391 3.2461 7.76819 2.52732 9.625 2.525ZM1.8463 10.025H17.4037C17.3309 10.5246 17.0809 10.9813 16.6992 11.3117C16.3176 11.6422 15.8298 11.8244 15.325 11.825H3.925C3.42017 11.8244 2.93241 11.6422 2.55077 11.3117C2.16914 10.9813 1.9191 10.5246 1.8463 10.025ZM18.025 13.325H1.225V12.425H18.025V13.325Z" fill="black"/>
</svg>
