<svg width="15" height="15" viewBox="0 0 15 15" fill="none" xmlns="http://www.w3.org/2000/svg">
<g clip-path="url(#clip0)">
<path d="M11.8921 5.32149C10.6203 3.91685 9.86453 2.68034 9.45439 1.89035C9.01021 1.03468 8.86465 0.504088 8.86354 0.499865L8.73132 0L8.25911 0.210625C8.20392 0.235227 6.89924 0.830215 6.16819 2.29228C5.80122 3.02626 5.72782 3.84345 5.7309 4.3997C5.73269 4.72343 5.50333 5.00452 5.18556 5.06806C4.96276 5.11257 4.73358 5.04331 4.57277 4.8825L3.69317 4.00291L3.39059 4.42014C3.35919 4.46345 2.61973 5.48327 2.48511 5.68703C1.82772 6.68216 1.48494 7.84138 1.49382 9.03936C1.50573 10.6394 2.13493 12.1384 3.26553 13.2603C4.39607 14.3822 5.89989 15 7.49997 15C10.8118 15 13.5062 12.3056 13.5062 8.99373C13.5062 7.79293 12.9179 6.45447 11.8921 5.32149ZM7.5 14.1203C6.13359 14.1203 4.84984 13.5932 3.88521 12.6359C2.92055 11.6786 2.38371 10.399 2.37353 9.03282C2.36591 8.0101 2.65832 7.02081 3.21911 6.17194C3.28758 6.06832 3.56225 5.68513 3.80067 5.35445L3.95077 5.50456C4.32001 5.87379 4.846 6.0331 5.35815 5.93068C6.08793 5.78471 6.61469 5.13884 6.61061 4.3949C6.60806 3.9345 6.66577 3.26427 6.95504 2.68567C7.30715 1.98149 7.83352 1.52126 8.19929 1.26534C8.53011 2.10678 9.36871 3.84518 11.24 5.91197C11.6569 6.37239 12.6266 7.59439 12.6266 8.99376C12.6266 11.8205 10.3268 14.1203 7.5 14.1203Z" fill="#DC0000"/>
<path d="M8.3914 7.46272L5.6333 11.5018H6.60843L9.36653 7.46272H8.3914Z" fill="#DC0000"/>
<path d="M8.97999 9.30916C8.36837 9.30916 7.90674 9.71883 7.90674 10.4343C7.90674 11.1556 8.36834 11.5595 8.97999 11.5595C9.59163 11.5595 10.0532 11.1556 10.0532 10.4343C10.0532 9.71883 9.5916 9.30916 8.97999 9.30916ZM8.97999 10.9363C8.85305 10.9363 8.72611 10.8209 8.72611 10.4343C8.72611 10.0477 8.85305 9.9323 8.97999 9.9323C9.10693 9.9323 9.23387 10.0477 9.23387 10.4343C9.23387 10.8209 9.10693 10.9363 8.97999 10.9363Z" fill="#DC0000"/>
<path d="M7.09326 8.53019C7.09326 7.81471 6.63166 7.40504 6.02002 7.40504C5.40838 7.40504 4.94678 7.81471 4.94678 8.53019C4.94678 9.25144 5.40838 9.65536 6.02002 9.65536C6.63166 9.65536 7.09326 9.25144 7.09326 8.53019ZM5.76614 8.53019C5.76614 8.1436 5.89308 8.02818 6.02002 8.02818C6.14696 8.02818 6.2739 8.1436 6.2739 8.53019C6.2739 8.91678 6.14696 9.0322 6.02002 9.0322C5.89308 9.0322 5.76614 8.91678 5.76614 8.53019Z" fill="#DC0000"/>
</g>
<defs>
<clipPath id="clip0">
<rect width="15" height="15" fill="white"/>
</clipPath>
</defs>
</svg>
