<svg width="100" height="100" viewBox="0 0 100 100" fill="none" xmlns="http://www.w3.org/2000/svg">
<path d="M50 100C22.4289 100 0 77.5711 0 50C0 22.4289 22.4289 0 50 0C77.5711 0 100 22.4289 100 50C100 77.5711 77.5711 100 50 100ZM50 6.25C25.8751 6.25 6.25 25.8751 6.25 50C6.25 74.1249 25.8751 93.75 50 93.75C74.1249 93.75 93.75 74.1249 93.75 50C93.75 25.8751 74.1249 6.25 50 6.25Z" fill="#0AB607"/>
<path d="M45.3126 66.6664C44.5123 66.6664 43.7127 66.3628 43.1039 65.7501L29.5625 52.2087C28.3418 50.9872 28.3418 49.0082 29.5625 47.7875C30.7832 46.5668 32.7623 46.5668 33.9837 47.7875L45.3164 59.1209L70.1921 34.2461C71.4128 33.0254 73.3918 33.0254 74.6125 34.2461C75.8333 35.4668 75.8333 37.4458 74.6125 38.6665L47.529 65.7501C46.9125 66.3628 46.1129 66.6664 45.3126 66.6664Z" fill="#0AB607"/>
</svg>
