<svg width="110" height="115" viewBox="0 0 110 115" fill="none" xmlns="http://www.w3.org/2000/svg">
<g clip-path="url(#clip0)">
<path d="M100.833 43.2922H83.7109L65.7226 9.17856C64.8303 7.48398 62.8946 6.9307 61.3992 7.94962C59.9067 8.96854 59.4237 11.1708 60.3191 12.869L76.3616 43.2922H24.4716L40.5141 12.8687C41.4096 11.1705 40.9266 8.9683 39.4341 7.94938C37.9355 6.93046 36.0062 7.48374 35.1107 9.17831L17.1224 43.292H0V50.4628H6.83906L14.8443 99.0511C15.6812 104.139 19.5892 107.829 24.1375 107.829H76.6958C81.2438 107.829 85.1518 104.139 85.9858 99.0547L93.9938 50.4628H100.833C100.833 50.4628 100.833 43.2922 100.833 43.2922ZM79.7913 97.7348C79.5144 99.4293 78.2127 100.659 76.6956 100.659H24.1375C22.6204 100.659 21.3189 99.4296 21.0388 97.7314L13.2489 50.4628H87.5844L79.7913 97.7348Z" fill="#ED4848"/>
</g>
<path d="M109 45.1175C109 56.2114 101.122 64.978 91.6668 64.978C82.2113 64.978 74.3335 56.2114 74.3335 45.1175C74.3335 34.0237 82.2113 25.2571 91.6668 25.2571C101.122 25.2571 109 34.0237 109 45.1175Z" fill="#ED4848" stroke="#ED4848" stroke-width="2"/>
<path d="M99.285 44.5983C99.285 47.8649 98.6597 50.3756 97.409 52.1303C96.177 53.8663 94.469 54.7343 92.285 54.7343C90.101 54.7343 88.3837 53.8663 87.133 52.1303C85.901 50.3756 85.285 47.8649 85.285 44.5983C85.285 42.9743 85.4437 41.5369 85.761 40.2863C86.097 39.0356 86.573 37.9809 87.189 37.1223C87.805 36.2636 88.5423 35.6103 89.401 35.1623C90.2597 34.7143 91.221 34.4903 92.285 34.4903C94.469 34.4903 96.177 35.3676 97.409 37.1223C98.6597 38.8583 99.285 41.3503 99.285 44.5983ZM95.029 44.5983C95.029 43.6276 94.9823 42.7503 94.889 41.9663C94.7957 41.1636 94.6463 40.4729 94.441 39.8943C94.2357 39.3156 93.9557 38.8676 93.601 38.5503C93.2463 38.2329 92.8077 38.0743 92.285 38.0743C91.7623 38.0743 91.3237 38.2329 90.969 38.5503C90.633 38.8676 90.353 39.3156 90.129 39.8943C89.9237 40.4729 89.7743 41.1636 89.681 41.9663C89.5877 42.7503 89.541 43.6276 89.541 44.5983C89.541 45.5689 89.5877 46.4556 89.681 47.2583C89.7743 48.0609 89.9237 48.7516 90.129 49.3303C90.353 49.9089 90.633 50.3569 90.969 50.6743C91.3237 50.9916 91.7623 51.1503 92.285 51.1503C92.8077 51.1503 93.2463 50.9916 93.601 50.6743C93.9557 50.3569 94.2357 49.9089 94.441 49.3303C94.6463 48.7516 94.7957 48.0609 94.889 47.2583C94.9823 46.4556 95.029 45.5689 95.029 44.5983Z" fill="white"/>
<defs>
<clipPath id="clip0">
<rect width="100.833" height="114.732" fill="white" transform="translate(0 0.267609)"/>
</clipPath>
</defs>
</svg>
