<svg width="15" height="15" viewBox="0 0 15 15" fill="none" xmlns="http://www.w3.org/2000/svg">
<path d="M7.79005 4.60223C8.19456 4.60223 8.52247 4.27431 8.52247 3.8698C8.52247 3.46529 8.19456 3.13737 7.79005 3.13737C7.38554 3.13737 7.05762 3.46529 7.05762 3.8698C7.05762 4.27431 7.38554 4.60223 7.79005 4.60223Z" fill="black"/>
<path d="M7.92874 10.7251C7.82133 10.7827 7.73594 10.7352 7.69462 10.7019C7.65335 10.6685 7.58675 10.5933 7.60496 10.4625L8.06309 7.1148C8.13591 6.59074 7.93942 6.07007 7.55026 5.75598C7.16102 5.4418 6.64948 5.39112 6.21534 5.62365L5.55615 5.9765L6.024 7.02987L6.68354 6.67681C6.79092 6.61933 6.87634 6.6667 6.91766 6.70004C6.95895 6.73338 7.02553 6.80862 7.00735 6.9394L6.54922 10.2871C6.47637 10.8112 6.67289 11.3318 7.06202 11.6459C7.28912 11.8293 7.55781 11.9228 7.82854 11.9228C8.02179 11.9228 8.21609 11.8751 8.39694 11.7782L9.05615 11.4254L8.58822 10.372L7.92874 10.7251Z" fill="black"/>
<circle cx="7.5" cy="7.5" r="7.15" stroke="black" stroke-width="0.7"/>
</svg>
