<svg width="90" height="90" viewBox="0 0 90 90" fill="none" xmlns="http://www.w3.org/2000/svg">
<path d="M77.5834 85.7965C77.5834 85.7965 77.5834 60.4539 77.5752 57.9327C77.5834 55.632 77.5101 0.401645 77.5101 0.401645L76.2522 0.396255C76.2522 0.396255 65.9686 6.19838 65.9714 49.2232C73.8699 51.3931 70.5457 60.0241 69.9467 61.1185C69.9467 63.3104 70.1154 85.8075 70.1154 85.8075L70.1398 85.8021C70.1316 85.8265 70.1236 85.8459 70.1262 85.8755C70.1152 87.9418 71.7923 89.6194 73.8507 89.6028C75.9037 89.6082 77.5863 87.9282 77.5781 85.8755C77.5863 85.8565 77.5863 85.8265 77.5727 85.8127L77.5834 85.7965Z" fill="black"/>
<path d="M59.3496 1.98739L57.1143 1.98481L57.7761 25.393L55.0913 25.3876V1.982L53.1311 1.98739V25.5385H50.904V1.98481L48.7422 1.98739L48.7368 25.5385H46.1041L46.8568 1.97919H44.819L42.34 21.9049C42.34 21.9049 42.2788 22.655 42.2788 22.9395C42.2788 26.0121 43.704 28.7606 45.9311 30.5481C53.2729 38.8344 48.2618 47.2871 48.2618 49.2963C48.2672 51.518 48.2672 85.7337 48.2672 85.7337H48.2724C48.2724 85.7606 48.2644 85.7798 48.2616 85.8124C48.2644 87.909 49.9648 89.6025 52.0583 89.6079C54.1547 89.6079 55.8592 87.9036 55.8592 85.815C55.8564 85.7798 55.8454 85.758 55.8454 85.7419H55.8508C55.8508 85.7419 55.8562 51.9482 55.8562 49.3668C55.8508 47.0389 51.6168 37.3136 58.6958 30.0904C58.7012 30.0797 58.7176 30.0604 58.7286 30.0454C60.4547 28.4093 61.5929 26.1534 61.767 23.62C61.778 23.4417 61.7724 22.9924 61.7724 22.9924L59.3496 1.98739Z" fill="black"/>
<path d="M25.4839 0.0053897V0C25.4446 0 25.3082 0 25.2688 0C25.2688 0 25.2688 0.00281202 25.2688 0.0053897C17.0479 0.13896 12.4165 8.01003 12.4165 16.5661C12.4137 25.1929 17.6016 31.3486 22.1241 32.7169C24.6031 36.1883 22.9695 44.3956 21.2188 49.1278C21.2188 51.3929 21.2188 86.077 21.2188 86.077H21.227C21.2242 86.1014 21.2188 86.1288 21.2188 86.156C21.2188 88.2769 22.9381 90.0002 25.0633 90.0002C25.1723 90.0002 25.5819 90.0002 25.6909 90.0002C27.8144 90.0002 29.5354 88.2769 29.5354 86.156C29.5354 86.1288 29.5325 86.1016 29.5272 86.077H29.5354C29.5354 86.077 29.5354 51.3929 29.5354 49.1278C27.7846 44.3956 26.1525 36.1883 28.6287 32.7169C33.1537 31.3488 38.3363 25.1929 38.3391 16.5661C38.3388 8.01003 33.7063 0.13896 25.4839 0.0053897ZM21.193 29.3748C20.6799 28.9788 20.0249 28.3456 19.3388 27.5125C18.6418 26.6809 17.9203 25.6503 17.2396 24.4645C16.9101 23.8682 16.5984 23.2324 16.3083 22.5601C16.0321 21.8576 15.8033 21.181 15.6482 20.3806C15.3637 18.841 15.4113 17.3694 15.5721 16.0149C15.7232 14.6616 16.0105 13.4269 16.3304 12.3991C16.6434 11.3645 17.0029 10.5326 17.301 9.96508C17.5909 9.38792 17.8278 9.11421 17.8278 9.11421C17.8278 9.11421 17.7774 9.48165 17.753 10.0905C17.7338 10.7004 17.7026 11.5757 17.6712 12.621C17.6469 14.682 17.4765 17.4837 17.8617 19.9735C17.9339 20.5561 18.1406 21.2164 18.341 21.8086C18.5275 22.4268 18.7534 23.0379 18.9957 23.6233C19.4587 24.8048 19.9581 25.9008 20.3872 26.8454C20.8226 27.782 21.2094 28.5661 21.5115 29.0929C21.7988 29.6333 22.0601 29.8648 22.0791 29.843C22.0847 29.8704 21.6955 29.7846 21.193 29.3748Z" fill="black"/>
</svg>
