<svg width="11" height="15" viewBox="0 0 11 15" fill="none" xmlns="http://www.w3.org/2000/svg">
<path d="M9.54462 1.87331H7.31077V1.40499C7.31077 0.630282 6.76416 0 6.09231 0H4.46769C3.79584 0 3.24923 0.630282 3.24923 1.40499V1.87331H1.01538C0.455502 1.87331 0 2.39854 0 3.04413V4.68328C0 4.94192 0.181855 5.15161 0.406154 5.15161H0.628117L0.979008 13.6483C1.01 14.3987 1.5446 14.9865 2.19607 14.9865H8.36393C9.01542 14.9865 9.55002 14.3987 9.58099 13.6483L9.93188 5.15161H10.1538C10.3781 5.15161 10.56 4.94192 10.56 4.68328V3.04413C10.56 2.39854 10.1045 1.87331 9.54462 1.87331ZM4.06154 1.40499C4.06154 1.14676 4.24375 0.936657 4.46769 0.936657H6.09231C6.31625 0.936657 6.49846 1.14676 6.49846 1.40499V1.87331H4.06154V1.40499ZM0.812308 3.04413C0.812308 2.91502 0.903413 2.80997 1.01538 2.80997H9.54462C9.65659 2.80997 9.74769 2.91502 9.74769 3.04413V4.21496C9.62252 4.21496 1.33099 4.21496 0.812308 4.21496V3.04413ZM8.7696 13.6038C8.75927 13.8539 8.58107 14.0499 8.36393 14.0499H2.19607C1.97891 14.0499 1.80071 13.8539 1.7904 13.6038L1.44134 5.15161H9.11866L8.7696 13.6038Z" fill="black" fill-opacity="0.5"/>
<path d="M5.27993 13.1132C5.50423 13.1132 5.68609 12.9035 5.68609 12.6449V6.55662C5.68609 6.29798 5.50423 6.08829 5.27993 6.08829C5.05563 6.08829 4.87378 6.29798 4.87378 6.55662V12.6449C4.87378 12.9035 5.05561 13.1132 5.27993 13.1132Z" fill="black" fill-opacity="0.5"/>
<path d="M7.31069 13.1132C7.53499 13.1132 7.71685 12.9035 7.71685 12.6449V6.55662C7.71685 6.29798 7.53499 6.08829 7.31069 6.08829C7.0864 6.08829 6.90454 6.29798 6.90454 6.55662V12.6449C6.90454 12.9035 7.08637 13.1132 7.31069 13.1132Z" fill="black" fill-opacity="0.5"/>
<path d="M3.24917 13.1132C3.47347 13.1132 3.65533 12.9035 3.65533 12.6449V6.55662C3.65533 6.29798 3.47347 6.08829 3.24917 6.08829C3.02487 6.08829 2.84302 6.29798 2.84302 6.55662V12.6449C2.84302 12.9035 3.02485 13.1132 3.24917 13.1132Z" fill="black" fill-opacity="0.5"/>
</svg>
