<svg width="16" height="16" viewBox="0 0 16 16" fill="none" xmlns="http://www.w3.org/2000/svg">
<path d="M7.61195 0.00925297C3.38637 0.210451 0.0517932 3.72954 0.064612 7.9599C0.0685151 9.24837 0.379572 10.4645 0.928295 11.5391L0.0858109 15.6286C0.0402371 15.8498 0.239752 16.0435 0.459508 15.9914L4.46675 15.042C5.49627 15.5549 6.65265 15.8511 7.87648 15.8698C12.1954 15.9357 15.7967 12.5064 15.9313 8.18903C16.0756 3.56114 12.256 -0.211919 7.61195 0.00925297ZM12.3935 12.3289C11.2199 13.5025 9.65956 14.1488 7.99992 14.1488C7.02814 14.1488 6.09776 13.9307 5.23454 13.5007L4.67648 13.2227L2.21963 13.8048L2.73678 11.2944L2.46185 10.756C2.01372 9.87836 1.78651 8.92935 1.78651 7.93534C1.78651 6.27566 2.4328 4.71536 3.60636 3.54177C4.76943 2.37871 6.35521 1.72188 8.00004 1.72188C9.65968 1.72192 11.2199 2.36822 12.3935 3.54174C13.567 4.71529 14.2133 6.27559 14.2134 7.93522C14.2133 9.58009 13.5565 11.1659 12.3935 12.3289Z" fill="#7AD06D"/>
<path d="M11.8511 9.65625L10.314 9.2149C10.1119 9.15689 9.89434 9.21421 9.74709 9.36425L9.37121 9.7472C9.21272 9.90868 8.97222 9.96057 8.76245 9.8757C8.03534 9.58144 6.5058 8.22149 6.11519 7.54125C6.0025 7.34503 6.02114 7.09971 6.1595 6.92067L6.48767 6.49611C6.61624 6.32978 6.64337 6.10638 6.55834 5.9141L5.91166 4.45149C5.75676 4.10117 5.3091 3.99919 5.01664 4.24654C4.58765 4.60937 4.07864 5.16073 4.01677 5.77156C3.90768 6.8485 4.36954 8.20607 6.11607 9.83617C8.13379 11.7194 9.74958 11.9682 10.8016 11.7133C11.3983 11.5688 11.8752 10.9894 12.1761 10.515C12.3813 10.1915 12.2193 9.76197 11.8511 9.65625Z" fill="#7AD06D"/>
</svg>
